<?xml version="1.0" encoding="UTF-8"?>
<svg width="18px" height="16px" viewBox="0 0 18 16" version="1.1" xmlns="http://www.w3.org/2000/svg" xmlns:xlink="http://www.w3.org/1999/xlink">
    <!-- Generator: Sketch 60 (88103) - https://sketch.com -->
    <title>Group</title>
    <desc>Created with Sketch.</desc>
    <defs>
        <path d="M0,0 L0,13.125 C0,13.74375 0.50625,14.25 1.125,14.25 L15.375,14.25 C15.99375,14.25 16.5,13.74375 16.5,13.125 L16.5,0 L0,0 Z M10.125,3 L6.375,3 C5.960625,3 5.625,2.664375 5.625,2.25 C5.625,1.835625 5.960625,1.5 6.375,1.5 L10.125,1.5 C10.539375,1.5 10.875,1.835625 10.875,2.25 C10.875,2.664375 10.539375,3 10.125,3 Z" id="path-1"></path>
        <path d="M0,0 L0,13.125 C0,13.74375 0.50625,14.25 1.125,14.25 L15.375,14.25 C15.99375,14.25 16.5,13.74375 16.5,13.125 L16.5,0 L0,0 Z M10.125,3 L6.375,3 C5.960625,3 5.625,2.664375 5.625,2.25 C5.625,1.835625 5.960625,1.5 6.375,1.5 L10.125,1.5 C10.539375,1.5 10.875,1.835625 10.875,2.25 C10.875,2.664375 10.539375,3 10.125,3 Z" id="path-3"></path>
        <path d="M0,0 L0,13.125 C0,13.74375 0.50625,14.25 1.125,14.25 L15.375,14.25 C15.99375,14.25 16.5,13.74375 16.5,13.125 L16.5,0 L0,0 Z M10.125,3 L6.375,3 C5.960625,3 5.625,2.664375 5.625,2.25 C5.625,1.835625 5.960625,1.5 6.375,1.5 L10.125,1.5 C10.539375,1.5 10.875,1.835625 10.875,2.25 C10.875,2.664375 10.539375,3 10.125,3 Z" id="path-5"></path>
        <circle id="path-7" cx="7.125" cy="7.125" r="7.125"></circle>
        <circle id="path-9" cx="7.125" cy="7.125" r="7.125"></circle>
        <circle id="path-11" cx="7.125" cy="7.125" r="7.125"></circle>
        <circle id="path-13" cx="7.125" cy="7.125" r="7.125"></circle>
        <path d="M0,0 L0,13.125 C0,13.74375 0.50625,14.25 1.125,14.25 L15.375,14.25 C15.99375,14.25 16.5,13.74375 16.5,13.125 L16.5,0 L0,0 Z M10.125,3 L6.375,3 C5.960625,3 5.625,2.664375 5.625,2.25 C5.625,1.835625 5.960625,1.5 6.375,1.5 L10.125,1.5 C10.539375,1.5 10.875,1.835625 10.875,2.25 C10.875,2.664375 10.539375,3 10.125,3 Z" id="path-15"></path>
        <radialGradient cx="-0.282954545%" cy="-0.431578947%" fx="-0.282954545%" fy="-0.431578947%" r="149.734211%" gradientTransform="translate(-0.002830,-0.004316),scale(0.863636,1.000000),translate(0.002830,0.004316)" id="radialGradient-17">
            <stop stop-color="#FFFFFF" stop-opacity="0.1" offset="0%"></stop>
            <stop stop-color="#FFFFFF" stop-opacity="0" offset="100%"></stop>
        </radialGradient>
    </defs>
    <g id="Page-1" stroke="none" stroke-width="1" fill="none" fill-rule="evenodd">
        <g id="Group" transform="translate(0.000000, -1.000000)">
            <g id="Clipped" transform="translate(0.750000, 1.875000)">
                <mask id="mask-2" fill="white">
                    <use xlink:href="#path-1"></use>
                </mask>
                <g id="a"></g>
                <polygon id="Path" fill="#EEEEEE" fill-rule="nonzero" mask="url(#mask-2)" points="0 0 16.5 0 16.5 14.25 0 14.25"></polygon>
            </g>
            <g id="Clipped" transform="translate(0.750000, 1.875000)">
                <mask id="mask-4" fill="white">
                    <use xlink:href="#path-3"></use>
                </mask>
                <g id="a"></g>
                <path d="M10.125,1.5 L6.375,1.5 C5.960625,1.5 5.625,1.835625 5.625,2.25 C5.625,2.664375 5.960625,3 6.375,3 L10.125,3 C10.539375,3 10.875,2.664375 10.875,2.25 C10.875,1.835625 10.539375,1.5 10.125,1.5 Z" id="Path" fill="#FFFFFF" fill-rule="nonzero" mask="url(#mask-4)"></path>
            </g>
            <g id="Clipped" transform="translate(0.750000, 1.875000)">
                <mask id="mask-6" fill="white">
                    <use xlink:href="#path-5"></use>
                </mask>
                <g id="a"></g>
                <g id="Group" mask="url(#mask-6)">
                    <g transform="translate(1.125000, 6.000000)" id="Clipped">
                        <g>
                            <mask id="mask-8" fill="white">
                                <use xlink:href="#path-7"></use>
                            </mask>
                            <g id="c"></g>
                            <path d="M1.1315625,0 L1.1315625,8.7440625 L4.32,8.7440625 L7.125,3.8859375 L14.25,3.8859375 L14.25,0 L1.1315625,0 Z M1.1315625,0 L1.1315625,8.7440625 L4.32,8.7440625 L7.125,3.8859375 L14.25,3.8859375 L14.25,0 L1.1315625,0 Z" id="Shape" fill="#DB4437" fill-rule="nonzero" mask="url(#mask-8)"></path>
                        </g>
                        <g>
                            <mask id="mask-10" fill="white">
                                <use xlink:href="#path-9"></use>
                            </mask>
                            <g id="c"></g>
                            <path d="M0,14.25 L6.781875,14.25 L9.93,11.101875 L9.93,8.745 L4.32,8.7440625 L0,1.335 L0,14.25 Z M0,14.25 L6.781875,14.25 L9.93,11.101875 L9.93,8.745 L4.32,8.7440625 L0,1.335 L0,14.25 Z" id="Shape" fill="#0F9D58" fill-rule="nonzero" mask="url(#mask-10)"></path>
                        </g>
                        <g>
                            <mask id="mask-12" fill="white">
                                <use xlink:href="#path-11"></use>
                            </mask>
                            <g id="c"></g>
                            <path d="M7.125,3.8859375 L9.93,8.7440625 L6.7828125,14.25 L14.25,14.25 L14.25,3.8859375 L7.125,3.8859375 Z M7.125,3.8859375 L9.93,8.7440625 L6.7828125,14.25 L14.25,14.25 L14.25,3.8859375 L7.125,3.8859375 Z" id="Shape" fill="#FFCD40" fill-rule="nonzero" mask="url(#mask-12)"></path>
                        </g>
                        <g>
                            <mask id="mask-14" fill="white">
                                <use xlink:href="#path-13"></use>
                            </mask>
                            <g id="c"></g>
                            <g id="Group" mask="url(#mask-14)" fill-rule="nonzero">
                                <g transform="translate(3.843750, 3.843750)" id="Oval">
                                    <circle fill="#F1F1F1" cx="3.28125" cy="3.28125" r="3.2390625"></circle>
                                    <circle fill="#4285F4" cx="3.28125" cy="3.28125" r="2.59125"></circle>
                                </g>
                            </g>
                        </g>
                    </g>
                </g>
            </g>
            <g id="Clipped" transform="translate(0.750000, 1.875000)">
                <mask id="mask-16" fill="white">
                    <use xlink:href="#path-15"></use>
                </mask>
                <g id="a"></g>
                <polygon id="Path" fill-opacity="0.05" fill="#212121" fill-rule="nonzero" mask="url(#mask-16)" points="0 0 16.5 0 16.5 7.125 0 7.125"></polygon>
            </g>
            <polygon id="Path" fill-opacity="0.02" fill="#212121" fill-rule="nonzero" points="0.75 8.90625 17.25 8.90625 17.25 9.00625 0.75 9.00625"></polygon>
            <polygon id="Path" fill-opacity="0.05" fill="#FFFFFF" fill-rule="nonzero" points="0.75 9 17.25 9 17.25 9.1 0.75 9.1"></polygon>
            <path d="M10.875,4.875 L7.125,4.875 C6.7265625,4.875 6.40125,4.56375 6.3778125,4.171875 C6.3759375,4.1878125 6.375,4.2028125 6.375,4.21875 C6.375,4.633125 6.710625,4.96875 7.125,4.96875 L10.875,4.96875 C11.289375,4.96875 11.625,4.633125 11.625,4.21875 C11.625,4.2028125 11.6240625,4.1878125 11.6221875,4.171875 C11.59875,4.56375 11.2734375,4.875 10.875,4.875 Z M0.75,1.875 L0.75,1.975 L17.25,1.975 L17.25,1.875 L0.75,1.875 Z" id="Shape" fill-opacity="0.02" fill="#212121" fill-rule="nonzero"></path>
            <path d="M7.125,3.375 L10.875,3.375 C11.2734375,3.375 11.59875,3.68625 11.6221875,4.078125 C11.623125,4.0621875 11.625,4.0471875 11.625,4.03125 C11.625,3.616875 11.289375,3.28125 10.875,3.28125 L7.125,3.28125 C6.710625,3.28125 6.375,3.616875 6.375,4.03125 C6.375,4.0471875 6.3759375,4.0621875 6.3778125,4.078125 C6.40125,3.68625 6.7265625,3.375 7.125,3.375 Z M16.125,16.03125 L1.875,16.03125 C1.25625,16.03125 0.75,15.525 0.75,14.90625 L0.75,15 C0.75,15.61875 1.25625,16.125 1.875,16.125 L16.125,16.125 C16.74375,16.125 17.25,15.61875 17.25,15 L17.25,14.90625 C17.25,15.525 16.74375,16.03125 16.125,16.03125 Z" id="Shape" fill-opacity="0.1" fill="#231F20" fill-rule="nonzero"></path>
            <path d="M0.75,1.875 L0.75,15 C0.75,15.61875 1.25625,16.125 1.875,16.125 L16.125,16.125 C16.74375,16.125 17.25,15.61875 17.25,15 L17.25,1.875 L0.75,1.875 Z M10.875,4.875 L7.125,4.875 C6.710625,4.875 6.375,4.539375 6.375,4.125 C6.375,3.710625 6.710625,3.375 7.125,3.375 L10.875,3.375 C11.289375,3.375 11.625,3.710625 11.625,4.125 C11.625,4.539375 11.289375,4.875 10.875,4.875 Z" id="Shape" fill="url(#radialGradient-17)" fill-rule="nonzero"></path>
            <polygon id="Path" points="0 0 18 0 18 18 0 18"></polygon>
        </g>
    </g>
</svg>
